<?xml version="1.0" standalone="no"?>
<!DOCTYPE svg PUBLIC "-//W3C//DTD SVG 20010904//EN"
 "http://www.w3.org/TR/2001/REC-SVG-20010904/DTD/svg10.dtd">
<svg version="1.0" xmlns="http://www.w3.org/2000/svg"
 width="290.000000pt" height="290.000000pt" viewBox="0 0 290.000000 290.000000"
 preserveAspectRatio="xMidYMid meet">
<metadata>
Created by potrace 1.14, written by Peter Selinger 2001-2017
</metadata>
<g transform="translate(0.000000,290.000000) scale(0.100000,-0.100000)"
fill="#000000" stroke="none">
<path d="M497 2710 c-98 -17 -164 -66 -232 -170 -55 -86 -58 -96 -43 -153 9
-38 9 -52 0 -67 -7 -11 -12 -34 -12 -51 0 -18 -10 -46 -24 -63 -23 -30 -20
-30 99 29 68 33 140 75 160 93 19 18 55 46 79 62 24 16 49 36 56 45 7 8 24 15
39 15 26 -1 26 -1 -12 -33 -20 -18 -37 -37 -37 -43 0 -6 -7 -17 -15 -24 -8 -7
-15 -20 -15 -29 0 -9 26 13 60 51 46 51 71 70 108 82 74 24 159 36 248 36 210
0 700 -98 819 -163 44 -25 106 -119 129 -197 11 -38 14 -42 20 -23 8 24 -9 69
-48 132 -15 24 -25 45 -22 49 10 9 232 -90 280 -125 103 -74 127 -149 70 -219
-17 -21 -49 -47 -71 -59 -23 -11 -50 -27 -60 -36 -10 -8 -44 -23 -76 -33 -31
-9 -63 -24 -70 -32 -6 -9 -20 -24 -29 -35 -10 -10 -15 -19 -10 -19 4 0 4 -55
0 -122 -11 -187 -17 -228 -34 -228 -17 0 -16 -12 -18 185 0 99 -5 160 -11 160
-39 -1 -238 -17 -261 -21 -39 -7 -647 14 -764 27 -52 5 -147 19 -210 30 -351
61 -529 143 -531 245 0 31 -2 35 -9 19 -5 -11 -9 -27 -9 -36 -1 -22 71 -103
125 -140 l44 -30 0 -358 c0 -299 2 -360 15 -377 17 -22 20 -54 4 -54 -7 0 -9
-85 -7 -277 3 -275 3 -279 29 -333 47 -100 126 -171 237 -213 56 -21 65 -21
936 -25 589 -2 901 0 947 7 137 22 239 90 300 203 l34 63 5 495 c5 475 6 497
26 545 34 80 44 105 40 105 -6 0 -66 -100 -116 -195 -73 -138 -132 -225 -172
-255 -28 -21 -44 -25 -104 -25 -65 0 -75 3 -126 37 -42 28 -59 46 -68 74 -15
45 -7 151 15 193 27 53 22 60 -51 63 -77 3 -92 16 -74 62 l11 29 82 -6 82 -7
40 103 c44 114 73 166 118 215 31 32 72 42 93 23 5 -5 41 -14 79 -20 59 -9 74
-15 95 -41 18 -21 34 -30 54 -30 l30 0 -28 29 -28 29 3 289 3 288 -27 57 c-33
67 -87 125 -154 165 l-48 28 -275 6 c-402 10 -1657 8 -1713 -1z m1513 -85 c7
-4 9 -58 5 -163 -3 -86 -7 -157 -8 -159 -4 -3 -125 41 -133 49 -7 8 -6 267 2
279 5 9 118 4 134 -6z m-1723 -857 c-3 -8 -6 -5 -6 6 -1 11 2 17 5 13 3 -3 4
-12 1 -19z m1767 -15 c-4 -21 -11 -49 -15 -63 -6 -21 -7 -19 -8 15 -1 48 8 85
21 85 5 0 6 -16 2 -37z m-1602 -13 c46 -10 139 -26 208 -35 69 -9 130 -18 135
-20 13 -5 -188 3 -206 8 -38 12 -124 27 -150 27 -16 0 -29 4 -29 8 0 5 -12 13
-27 19 -43 17 -22 15 69 -7z m-155 -52 c-3 -8 -6 -5 -6 6 -1 11 2 17 5 13 3
-3 4 -12 1 -19z m601 -15 c-10 -2 -28 -2 -40 0 -13 2 -5 4 17 4 22 1 32 -1 23
-4z m1109 -155 c-3 -7 -5 -2 -5 12 0 14 2 19 5 13 2 -7 2 -19 0 -25z m-1523
-159 c158 -79 212 -129 139 -129 -14 0 -70 14 -124 31 -80 26 -105 39 -129 66
-30 34 -42 93 -19 93 6 0 66 -27 133 -61z m1664 27 c23 -23 5 -36 -49 -36 -54
0 -72 17 -48 46 16 19 74 13 97 -10z m-329 -107 c102 -10 119 -14 139 -36 39
-42 30 -56 -73 -117 -76 -45 -219 -116 -233 -116 -5 0 -36 -10 -67 -22 -46
-17 -54 -23 -39 -29 32 -13 155 -9 226 5 90 20 123 38 195 112 l61 64 114 0
c96 -1 121 -4 168 -24 75 -32 85 -54 70 -154 -54 -368 -80 -446 -170 -500 -94
-56 -168 -74 -325 -79 -158 -5 -245 8 -345 53 -71 31 -134 95 -149 150 -17 61
-51 274 -51 323 l0 44 40 -6 40 -5 -39 28 c-27 20 -44 43 -56 77 -32 88 -60
153 -67 153 -18 0 -17 -49 1 -90 32 -70 32 -70 -71 -70 -121 0 -320 18 -332
30 -5 5 0 7 13 3 14 -4 21 -1 21 9 0 11 17 17 63 22 91 11 167 12 167 3 0 -5
4 -6 9 -2 6 3 19 -5 30 -17 26 -27 51 -32 52 -10 0 14 2 13 8 -2 14 -35 23 11
10 53 -16 56 -1 83 68 117 32 16 83 31 113 35 94 10 289 9 409 -2z m-1329 -96
c19 -8 65 -16 103 -20 37 -3 65 -8 63 -11 -6 -6 32 -36 59 -46 43 -17 -9 -18
-80 -1 -82 20 -217 82 -223 103 -4 12 0 12 19 1 13 -7 40 -19 59 -26z m110
-133 c8 -5 11 -10 5 -10 -5 0 -17 5 -25 10 -8 5 -10 10 -5 10 6 0 17 -5 25
-10z m144 -35 c70 -13 312 -33 471 -38 66 -2 70 -4 73 -26 l4 -24 -139 7
c-161 8 -281 26 -412 61 -89 24 -162 54 -99 41 15 -4 61 -13 102 -21z m-203
-300 c133 -80 258 -148 277 -151 19 -4 140 -5 268 -2 165 4 236 2 243 -6 4 -6
6 -76 2 -156 l-6 -145 -393 3 c-361 3 -398 5 -445 22 -68 26 -136 85 -167 146
-24 46 -25 59 -28 242 -2 105 -1 192 2 192 3 0 114 -65 247 -145z m2107 -81
c2 -93 -1 -121 -18 -167 -28 -74 -96 -149 -168 -184 l-57 -28 -500 0 -500 0
-3 98 c-1 53 0 97 4 97 3 0 23 -15 45 -33 88 -76 211 -116 379 -123 101 -5
127 -3 214 20 195 50 313 158 331 301 13 106 16 116 38 125 12 5 69 8 127 7
l105 -2 3 -111z"/>
<path d="M1485 1250 c-3 -4 2 -10 10 -14 8 -3 15 -15 15 -26 0 -20 25 -38 37
-27 3 4 6 17 7 29 1 14 8 24 20 26 21 4 36 -13 36 -44 0 -20 27 -41 38 -30 2
3 7 20 11 38 7 33 11 35 66 26 12 -2 21 4 23 14 3 16 -8 18 -127 17 -72 0
-133 -4 -136 -9z"/>
<path d="M1383 1106 c2 -7 23 -10 55 -8 47 3 53 1 61 -20 5 -12 7 -26 4 -30
-2 -5 3 -8 11 -8 10 0 15 8 13 22 -3 26 39 40 84 28 32 -9 188 5 201 18 4 4
-92 8 -213 8 -159 1 -219 -2 -216 -10z"/>
<path d="M817 2376 c-50 -18 -67 -34 -67 -62 0 -33 46 -59 124 -73 33 -5 149
-20 256 -32 261 -28 540 -85 540 -109 0 -4 9 -6 20 -3 11 3 27 0 35 -7 8 -6
18 -9 24 -6 5 3 38 -1 73 -10 66 -17 104 -48 129 -108 11 -25 10 -30 -5 -42
-10 -7 -42 -16 -71 -19 -66 -9 -130 7 -491 120 -148 47 -297 90 -330 96 -32 6
-66 14 -75 19 -8 4 -47 10 -85 13 l-69 6 55 -10 c30 -6 64 -14 75 -19 35 -15
-38 -12 -121 6 -42 8 -88 14 -102 12 l-27 -3 25 -14 c13 -8 103 -24 200 -37
163 -20 192 -28 418 -102 133 -44 267 -86 297 -92 98 -20 79 -40 -61 -66 -62
-11 -184 -18 -399 -23 -264 -6 -288 -8 -160 -12 184 -5 335 -2 525 11 196 14
200 15 200 51 l0 29 80 0 c163 0 190 44 94 153 -27 30 -41 37 -104 48 l-72 13
-28 60 c-38 84 -72 122 -128 140 -64 21 -287 63 -397 76 -129 14 -332 12 -378
-4z m463 -31 c207 -29 300 -55 343 -93 19 -16 51 -82 44 -89 -2 -2 -60 10
-128 26 -173 41 -247 51 -459 61 -102 5 -205 15 -229 22 -83 25 -78 69 10 88
58 12 286 4 419 -15z"/>
<path d="M500 2311 c0 -5 -10 -11 -22 -15 -14 -3 -31 -22 -43 -47 l-19 -42 34
-28 34 -29 -26 0 c-15 0 -40 11 -56 25 -30 25 -42 24 -42 -6 0 -22 15 -27 120
-39 79 -9 94 -8 137 9 l48 20 -79 0 c-73 1 -82 3 -108 28 -36 35 -36 66 1 92
16 12 34 21 41 21 6 0 8 5 5 10 -8 12 -25 13 -25 1z"/>
<path d="M520 2272 c0 -4 9 -13 20 -19 16 -11 18 -10 14 1 -6 15 -34 30 -34
18z"/>
<path d="M570 2229 c0 -11 49 -33 95 -42 29 -6 28 -6 -5 9 -19 9 -47 22 -62
29 -17 8 -28 10 -28 4z"/>
<path d="M1365 2140 c3 -5 13 -10 21 -10 8 0 14 5 14 10 0 6 -9 10 -21 10 -11
0 -17 -4 -14 -10z"/>
<path d="M1440 2132 c0 -6 9 -12 20 -15 11 -3 20 -3 20 -1 0 2 -9 8 -20 14
-11 6 -20 7 -20 2z"/>
<path d="M1540 2091 c0 -12 39 -21 45 -11 3 4 -2 11 -11 14 -22 8 -34 7 -34
-3z"/>
<path d="M1660 2047 c0 -32 16 -44 23 -17 3 10 -1 24 -9 31 -11 9 -14 7 -14
-14z"/>
<path d="M695 2041 c-10 -18 36 -24 53 -7 15 15 14 16 -15 16 -18 0 -34 -4
-38 -9z"/>
<path d="M1730 2036 c0 -16 26 -46 41 -46 13 0 11 7 -7 35 -18 28 -34 33 -34
11z"/>
<path d="M1870 2010 c-12 -7 -12 -12 -3 -21 15 -15 26 -7 21 15 -2 11 -7 13
-18 6z"/>
<path d="M855 2000 c-4 -6 7 -10 24 -10 17 0 31 5 31 10 0 6 -11 10 -24 10
-14 0 -28 -4 -31 -10z"/>
<path d="M1015 2000 c-4 -6 5 -10 20 -10 15 0 24 4 20 10 -3 6 -12 10 -20 10
-8 0 -17 -4 -20 -10z"/>
<path d="M172 1968 c19 -57 357 -141 610 -152 51 -3 77 -2 58 0 -19 3 -71 11
-115 19 -44 7 -114 16 -156 19 -80 6 -208 41 -294 81 -83 39 -107 47 -103 33z"/>
<path d="M2422 1816 c-30 -41 -62 -105 -62 -122 0 -13 40 29 61 63 18 29 25
33 65 33 42 0 45 -1 38 -22 -3 -13 -13 -26 -20 -31 -26 -15 -43 -38 -38 -52 7
-18 24 -24 90 -31 61 -8 93 7 116 53 12 24 12 34 1 60 -17 41 -48 61 -114 74
-30 5 -65 12 -79 15 -21 5 -31 -2 -58 -40z"/>
<path d="M2701 1694 c0 -11 3 -14 6 -6 3 7 2 16 -1 19 -3 4 -6 -2 -5 -13z"/>
<path d="M2402 1583 c-15 -3 -22 -10 -20 -21 4 -23 70 -29 87 -8 11 13 9 17
-14 26 -14 5 -27 9 -28 9 -1 -1 -12 -4 -25 -6z"/>
<path d="M2353 1421 c-41 -35 -22 -111 27 -111 42 0 66 82 34 114 -20 21 -34
20 -61 -3z"/>
<path d="M2231 1279 c-1 -15 7 -35 17 -46 9 -10 14 -14 10 -8 -3 5 -11 26 -16
45 -9 31 -10 32 -11 9z"/>
</g>
</svg>
